# Blender 4.4.0
# www.blender.org
mtllib HalfWall.mtl
o Cube.038
v 0.204333 -2.397051 -1.475271
v 0.204333 2.397051 -1.475271
v -0.204333 -2.397051 1.475271
v -0.152722 -2.397051 -1.481504
v -0.152722 2.397051 -1.481504
v -0.204333 2.397051 1.475271
v 0.152722 2.397051 1.481504
v 0.152722 -2.397051 1.481504
vn 0.9998 -0.0000 0.0175
vn -0.0000 1.0000 -0.0000
vn 0.0175 -0.0000 -0.9998
vn -0.0000 -1.0000 -0.0000
vn -0.0175 -0.0000 0.9998
vn -0.9998 -0.0000 -0.0175
vt 0.582873 0.555099
vt 0.582873 0.999844
vt 0.990118 0.999844
vt 0.990118 0.555099
vt 0.555116 0.548462
vt 0.540415 0.548462
vt 0.555116 0.564516
vt 0.540415 0.564516
vt 0.547094 0.564022
vt 0.547094 0.548398
vt 0.546507 0.548398
vt 0.546507 0.564022
s 1
usemtl Material.004
f 7/1/1 8/2/1 1/3/1 2/4/1
f 2/5/2 5/5/2 6/6/2 7/6/2
f 1/7/3 4/7/3 5/5/3 2/5/3
f 8/8/4 3/8/4 4/7/4 1/7/4
f 7/9/5 6/10/5 3/11/5 8/12/5
f 6/1/6 5/4/6 4/3/6 3/2/6
