# Blender 4.4.0
# www.blender.org
mtllib HouseFloor.mtl
o Plane.002
v -15.005777 12.295126 2.858713
v 2.900939 12.295126 2.858713
v -15.005777 12.295126 -9.133954
v 2.900939 12.295126 -9.133954
v -15.005777 12.295126 -1.602559
v 2.900939 12.295126 -1.602559
v 2.900939 12.295126 -5.368257
v -15.005777 12.295126 -5.368257
v -8.959651 12.295126 2.858713
v -8.959651 12.295126 -9.133954
v -8.959651 12.295126 -1.602559
v -8.959651 12.295126 -5.368257
v -15.005777 12.295126 6.192225
v 2.900939 12.295126 6.192225
v -8.959651 12.295126 6.192225
v 15.005777 12.295126 2.858713
v 15.005777 12.295126 -9.133954
v 15.005777 12.295126 -1.602559
v 15.005777 12.295126 -5.368257
v 8.953358 12.295126 -9.133954
v 8.953358 12.295126 -5.368257
v 8.953358 12.295126 -1.602559
v 8.953358 12.295126 2.858713
v 8.953358 12.295126 6.192225
v -3.029356 12.295126 2.858713
v -3.029356 12.295126 -9.133954
v -3.029356 12.295126 -1.602559
v -3.029356 12.295126 -5.368257
v -3.029356 12.295126 6.192225
v 11.979568 12.295126 -5.368257
v 11.979568 12.295126 -1.602559
v 11.979568 12.295126 2.858713
v 11.979568 12.295126 6.192225
v 11.979568 12.295126 -9.133954
v 15.005777 11.264577 6.192225
v 15.005777 11.264577 2.858713
v 11.979568 11.264577 2.858713
v 11.979568 11.264577 6.192225
vn -0.0000 1.0000 -0.0000
vn -0.0000 -0.0000 1.0000
vn 1.0000 -0.0000 -0.0000
vt 0.127605 0.270714
vt 0.501909 0.270714
vt 0.501909 0.518359
vt 0.127605 0.518359
vt 0.485977 0.431417
vt 0.070377 0.431417
vt 0.070377 0.118767
vt 0.485977 0.118767
vt 0.127605 0.023068
vt 0.501909 0.023068
vt 0.048484 0.025038
vt 0.427064 0.025038
vt 0.427064 0.270714
vt 0.048484 0.270714
vt 0.498521 0.431998
vt 0.075354 0.431998
vt 0.075354 0.119755
vt 0.498521 0.119755
vt 0.427064 0.516389
vt 0.048484 0.516389
vt 0.498521 0.299392
vt 0.075354 0.299392
vt 0.075354 0.081676
vt 0.498521 0.081676
vt 0.917102 0.034410
vt 0.917102 0.286336
vt 0.639324 0.286336
vt 0.639324 0.034410
vt 0.982800 0.675245
vt 0.576555 0.675245
vt 0.576555 0.570978
vt 0.982800 0.570978
vt 0.290201 0.533634
vt 0.290201 0.294366
vt 0.494226 0.294366
vt 0.494226 0.533634
vt 0.290201 0.010902
vt 0.494226 0.010902
vt 0.917102 0.470102
vt 0.639324 0.470102
vt 0.639324 0.218176
vt 0.917102 0.218176
vt 0.041481 0.294320
vt 0.041481 0.011449
vt 0.540099 0.011449
vt 0.540099 0.294320
vt 0.041481 0.533087
vt 0.540099 0.533087
vt 0.982800 0.988044
vt 0.576555 0.988044
vt 0.576555 0.779511
vt 0.982800 0.779511
vt 0.917102 0.265430
vt 0.917102 0.517356
vt 0.639324 0.517356
vt 0.639324 0.265430
vt 0.102382 0.023853
vt 0.471970 0.023853
vt 0.471970 0.268378
vt 0.102382 0.268378
vt 0.503145 0.422991
vt 0.096705 0.422991
vt 0.096705 0.117232
vt 0.503145 0.117232
vt 0.471970 0.512904
vt 0.102382 0.512904
vt 0.917102 0.160373
vt 0.639324 0.160373
vt 0.086176 0.294366
vt 0.086176 0.010902
vt 0.086176 0.533634
vt 0.157976 0.480371
vt 0.157976 0.050879
vt 0.372252 0.050879
vt 0.372252 0.480371
vt 0.988225 0.519108
vt 0.586624 0.519108
vt 0.586624 0.394954
vt 0.988225 0.394954
s 0
usemtl Material.001
f 28/1/1 7/2/1 4/3/1 26/4/1
f 25/5/1 2/6/1 6/7/1 27/8/1
f 27/9/1 6/10/1 7/2/1 28/1/1
f 5/11/1 11/12/1 12/13/1 8/14/1
f 1/15/1 9/16/1 11/17/1 5/18/1
f 8/14/1 12/13/1 10/19/1 3/20/1
f 9/21/1 1/22/1 13/23/1 15/24/1
f 25/25/1 9/26/1 15/27/1 29/28/1
f 34/29/1 30/30/1 19/31/1 17/32/1
f 30/33/1 31/34/1 18/35/1 19/36/1
f 31/34/1 32/37/1 16/38/1 18/35/1
f 2/39/1 14/40/1 24/41/1 23/42/1
f 6/43/1 2/44/1 23/45/1 22/46/1
f 7/47/1 6/43/1 22/46/1 21/48/1
f 4/49/1 7/50/1 21/51/1 20/52/1
f 2/53/1 25/54/1 29/55/1 14/56/1
f 11/57/1 27/58/1 28/59/1 12/60/1
f 9/61/1 25/62/1 27/63/1 11/64/1
f 12/60/1 28/59/1 26/65/1 10/66/1
f 23/28/1 24/25/1 33/67/1 32/68/1
f 22/69/1 23/70/1 32/37/1 31/34/1
f 21/71/1 22/69/1 31/34/1 30/33/1
f 20/52/1 21/51/1 30/30/1 34/29/1
f 37/68/1 38/67/1 35/26/1 36/27/1
f 16/72/2 32/73/2 37/74/2 36/75/2
f 32/76/3 33/77/3 38/78/3 37/79/3
