# Blender 4.4.0
# www.blender.org
mtllib IntWindow.mtl
o Cube.032
v -0.056301 -0.086745 0.011067
v -0.056301 0.086745 0.011067
v -0.056301 -0.086745 -0.011067
v -0.056301 0.086745 -0.011067
v 0.056301 -0.086745 0.011067
v 0.056301 0.086745 0.011067
v 0.056301 -0.086745 -0.011067
v 0.056301 0.086745 -0.011067
v -0.049287 -0.078803 0.011067
v -0.049287 0.078803 0.011067
v 0.049287 0.078803 0.011067
v 0.049287 -0.078803 0.011067
v -0.049287 -0.078803 0.007443
v -0.049287 0.078803 0.007443
v 0.049287 0.078803 0.007443
v 0.049287 -0.078803 0.007443
v -0.046069 -0.074629 0.007443
v -0.046069 0.074629 0.007443
v 0.046069 0.074629 0.007443
v 0.046069 -0.074629 0.007443
v -0.046069 -0.074629 0.001727
v -0.046069 0.074629 0.001727
v 0.046069 0.074629 0.001727
v 0.046069 -0.074629 0.001727
v -0.002906 -0.077095 0.006192
v -0.002906 0.077095 0.006192
v -0.002906 -0.077095 -0.002736
v -0.002906 0.077095 -0.002736
v 0.002906 -0.077095 0.006192
v 0.002906 0.077095 0.006192
v 0.002906 -0.077095 -0.002736
v 0.002906 0.077095 -0.002736
v -0.052686 0.025207 0.004634
v 0.052686 0.025207 0.004634
v -0.052686 0.029919 0.004634
v 0.052686 0.029919 0.004634
v -0.052686 0.025207 -0.001178
v 0.052686 0.025207 -0.001178
v -0.052686 0.029919 -0.001178
v 0.052686 0.029919 -0.001178
v -0.052686 -0.032373 0.004634
v 0.052686 -0.032373 0.004634
v -0.052686 -0.027660 0.004634
v 0.052686 -0.027660 0.004634
v -0.052686 -0.032373 -0.001178
v 0.052686 -0.032373 -0.001178
v -0.052686 -0.027660 -0.001178
v 0.052686 -0.027660 -0.001178
vn -1.0000 -0.0000 -0.0000
vn -0.0000 -0.0000 -1.0000
vn 1.0000 -0.0000 -0.0000
vn -0.0000 -0.0000 1.0000
vn -0.0000 -1.0000 -0.0000
vn -0.0000 1.0000 -0.0000
vt 0.410842 0.090399
vt 0.410842 0.347195
vt 0.410842 0.420144
vt 0.410842 0.676940
vt 0.577514 0.676940
vt 0.577514 0.420144
vt 0.577514 0.090399
vt 0.577514 0.347195
vt 0.408306 0.343540
vt 0.408306 0.117887
vt 0.416761 0.128218
vt 0.416761 0.333210
vt 0.378256 0.345127
vt 0.378256 0.111843
vt 0.544033 0.117887
vt 0.535578 0.128218
vt 0.544033 0.343540
vt 0.535578 0.333210
vt 0.572990 0.346825
vt 0.427084 0.346825
vt 0.431847 0.340647
vt 0.568228 0.340647
vt 0.524162 0.345127
vt 0.524162 0.111843
vt 0.431847 0.119719
vt 0.568228 0.119719
vt 0.572990 0.113541
vt 0.427084 0.113541
vt 0.323262 0.662576
vt 0.323262 0.989196
vt 0.008844 0.989196
vt 0.008844 0.662576
vt 0.468392 0.114115
vt 0.468392 0.342344
vt 0.476995 0.342344
vt 0.476995 0.114115
vt 0.394709 0.265541
vt 0.550677 0.265541
vt 0.550677 0.272516
vt 0.394709 0.272516
vt 0.394709 0.180312
vt 0.550677 0.180312
vt 0.550677 0.187287
vt 0.394709 0.187287
s 0
usemtl HouseTrimmy
f 1/1/1 2/2/1 4/2/1 3/1/1
f 3/3/2 4/4/2 8/5/2 7/6/2
f 7/7/3 8/8/3 6/8/3 5/7/3
f 2/9/4 1/10/4 9/11/4 10/12/4
f 3/1/5 7/7/5 5/7/5 1/1/5
f 8/8/6 4/2/6 2/2/6 6/8/6
f 10/13/3 9/14/3 13/14/3 14/13/3
f 1/10/4 5/15/4 12/16/4 9/11/4
f 6/17/4 2/9/4 10/12/4 11/18/4
f 5/15/4 6/17/4 11/18/4 12/16/4
f 15/19/4 14/20/4 18/21/4 19/22/4
f 11/23/5 10/13/5 14/13/5 15/23/5
f 12/24/1 11/23/1 15/23/1 16/24/1
f 9/14/6 12/24/6 16/24/6 13/14/6
f 17/25/6 20/26/6 24/26/6 21/25/6
f 16/27/4 15/19/4 19/22/4 20/26/4
f 13/28/4 16/27/4 20/26/4 17/25/4
f 14/20/4 13/28/4 17/25/4 18/21/4
f 24/29/4 23/30/4 22/31/4 21/32/4
f 18/21/3 17/25/3 21/25/3 22/21/3
f 19/22/5 18/21/5 22/21/5 23/22/5
f 20/26/1 19/22/1 23/22/1 24/26/1
f 25/33/1 26/34/1 28/34/1 27/33/1
f 27/33/2 28/34/2 32/35/2 31/36/2
f 31/36/3 32/35/3 30/35/3 29/36/3
f 29/36/4 30/35/4 26/34/4 25/33/4
f 27/33/5 31/36/5 29/36/5 25/33/5
f 32/35/6 28/34/6 26/34/6 30/35/6
f 33/37/4 34/38/4 36/39/4 35/40/4
f 35/40/6 36/39/6 40/39/6 39/40/6
f 39/40/2 40/39/2 38/38/2 37/37/2
f 37/37/5 38/38/5 34/38/5 33/37/5
f 35/40/1 39/40/1 37/37/1 33/37/1
f 40/39/3 36/39/3 34/38/3 38/38/3
f 41/41/4 42/42/4 44/43/4 43/44/4
f 43/44/6 44/43/6 48/43/6 47/44/6
f 47/44/2 48/43/2 46/42/2 45/41/2
f 45/41/5 46/42/5 42/42/5 41/41/5
f 43/44/1 47/44/1 45/41/1 41/41/1
f 48/43/3 44/43/3 42/42/3 46/42/3
