# Blender 4.4.0
# www.blender.org
mtllib RoomSeparator.mtl
o Cube.038
v 5.744521 -0.049633 0.220227
v 5.744521 0.049633 0.220227
v -5.832480 -0.049633 0.162341
v -5.832480 0.049633 0.162341
v 5.744521 -0.049633 -0.104454
v 5.744521 0.049633 -0.104454
v -5.832480 -0.049633 -0.162340
v -5.832480 0.049633 -0.162340
v 5.744521 0.116975 0.057886
v 5.744521 -0.049633 0.057886
v -5.832480 0.116975 0.000000
v -5.832480 -0.049633 0.000000
vn -0.0050 -0.0000 1.0000
vn -1.0000 -0.0000 -0.0000
vn -0.0019 0.9237 0.3832
vn 1.0000 -0.0000 -0.0000
vn 0.0050 -0.0000 -1.0000
vn -0.0000 -1.0000 -0.0000
vn 0.0019 0.9237 -0.3832
vt 0.582876 0.350156
vt 0.582876 0.343475
vt 0.579536 0.343475
vt 0.576196 0.343475
vt 0.762551 0.556032
vt 0.769172 0.556032
vt 0.769172 0.986450
vt 0.762551 0.986450
vt 0.579536 0.350156
vt 0.576196 0.350156
vt 0.828085 0.280926
vt 0.816065 0.280926
vt 0.816065 0.461120
vt 0.828085 0.461120
vt 0.840104 0.280926
vt 0.840104 0.461120
vt 0.775792 0.556032
vt 0.775792 0.986450
s 0
usemtl Material.001
f 2/1/1 4/2/1 3/2/1 1/1/1
f 12/3/2 11/3/2 8/4/2 7/4/2
f 2/5/3 9/6/3 11/7/3 4/8/3
f 10/9/4 9/9/4 2/1/4 1/1/4
f 8/4/5 6/10/5 5/10/5 7/4/5
f 10/11/6 1/12/6 3/13/6 12/14/6
f 5/15/6 10/11/6 12/14/6 7/16/6
f 5/10/4 6/10/4 9/9/4 10/9/4
f 3/2/2 4/2/2 11/3/2 12/3/2
f 9/6/7 6/17/7 8/18/7 11/7/7
