# Blender 4.4.0
# www.blender.org
mtllib DoubleCabinet.mtl
o Cube.046
v 0.546360 0.990010 0.439750
v 0.546360 -0.879715 0.439751
v -0.546360 0.990010 0.439750
v -0.546360 -0.879715 0.439752
v 0.546360 0.990009 -1.026682
v 0.546360 -0.879716 -1.026681
v -0.546360 0.990009 -1.026682
v -0.546360 -0.879716 -1.026681
v -0.167677 0.775623 0.328721
v -0.167677 -0.775623 0.328722
v -0.603096 0.775623 0.328721
v -0.603096 -0.775623 0.328722
v -0.167678 0.775623 -0.827316
v -0.167678 -0.775624 -0.827315
v -0.603096 0.775623 -0.827316
v -0.603096 -0.775624 -0.827315
v -0.655428 -0.307367 0.176926
v -0.655428 -0.579724 0.176927
v -0.708690 -0.307367 0.176926
v -0.708690 -0.579724 0.176927
v -0.655428 -0.307367 0.136321
v -0.655428 -0.579724 0.136321
v -0.708690 -0.307367 0.136321
v -0.708690 -0.579724 0.136321
v -0.612631 -0.244036 0.176926
v -0.612631 -0.290576 0.176926
v -0.612631 -0.596515 0.176927
v -0.612631 -0.643055 0.176927
v -0.612631 -0.244036 0.136321
v -0.612631 -0.643055 0.136321
v -0.612631 -0.290576 0.136321
v -0.612631 -0.596515 0.136321
v 0.546361 0.990010 0.448786
v 0.546361 -0.879715 0.448788
v -0.546360 0.990010 0.448787
v -0.546360 -0.879715 0.448788
v 0.546361 0.990011 1.915219
v 0.546361 -0.879715 1.915220
v -0.546360 0.990011 1.915219
v -0.546360 -0.879715 1.915220
v -0.167677 0.775623 0.559816
v -0.167677 -0.775623 0.559817
v -0.603095 0.775623 0.559816
v -0.603095 -0.775623 0.559817
v -0.167677 0.775624 1.715853
v -0.167677 -0.775623 1.715854
v -0.603095 0.775624 1.715853
v -0.603095 -0.775623 1.715854
v -0.655428 -0.307367 0.711612
v -0.655428 -0.579724 0.711612
v -0.708690 -0.307367 0.711612
v -0.708690 -0.579724 0.711612
v -0.655428 -0.307367 0.752218
v -0.655428 -0.579724 0.752218
v -0.708690 -0.307367 0.752218
v -0.708690 -0.579724 0.752218
v -0.612631 -0.244036 0.711612
v -0.612631 -0.290577 0.711612
v -0.612631 -0.596515 0.711612
v -0.612631 -0.643055 0.711612
v -0.612631 -0.244036 0.752218
v -0.612631 -0.643055 0.752218
v -0.612631 -0.290577 0.752218
v -0.612631 -0.596515 0.752218
vn -0.0000 -0.0000 1.0000
vn -1.0000 -0.0000 -0.0000
vn -0.0000 -0.0000 -1.0000
vn 1.0000 -0.0000 -0.0000
vn -0.0000 1.0000 -0.0000
vn -0.0000 -1.0000 -0.0000
vn -0.5504 0.8349 -0.0000
vn 0.3652 0.9309 -0.0000
vn -0.5504 -0.8349 -0.0000
vn 0.3652 -0.9309 -0.0000
vt 0.384983 0.410539
vt 0.384983 0.013083
vt 0.782438 0.013083
vt 0.782438 0.410539
vt 0.799879 0.018569
vt 0.799879 0.396589
vt 0.410947 0.396589
vt 0.410947 0.018569
vt 0.375000 0.500000
vt 0.625000 0.500000
vt 0.625000 0.750000
vt 0.375000 0.750000
vt 0.402970 0.972030
vt 0.402970 0.777970
vt 0.597030 0.777970
vt 0.597030 0.972030
vt 0.125000 0.500000
vt 0.125000 0.750000
vt 0.875000 0.500000
vt 0.875000 0.750000
vt 0.683439 0.466459
vt 0.756817 0.466459
vt 0.756817 0.539837
vt 0.683439 0.539837
vt 0.030856 0.098081
vt 0.280856 0.098081
vt 0.280856 0.348081
vt 0.030856 0.348081
vt 0.683439 0.613214
vt 0.756817 0.613214
vt 0.756817 0.686592
vt 0.683439 0.686592
vt 0.625000 1.000000
vt 0.375000 1.000000
vt 0.610061 0.613214
vt 0.610061 0.686592
vt 0.830194 0.613214
vt 0.830194 0.686592
vt 0.613548 0.464051
vt 0.659785 0.464051
vt 0.659785 0.510288
vt 0.613548 0.510288
vt 0.659785 0.556525
vt 0.613548 0.556525
vt 0.659785 0.602762
vt 0.613548 0.602762
vt 0.659785 0.648999
vt 0.613548 0.648999
vt 0.567311 0.556525
vt 0.567311 0.602762
vt 0.706022 0.556525
vt 0.706022 0.602762
vt 0.417176 0.957824
vt 0.582824 0.957824
vt 0.582824 0.792176
vt 0.417176 0.792176
s 0
usemtl Material
f 1/1/1 3/4/1 4/3/1 2/2/1
f 3/5/2 7/8/2 8/7/2 4/6/2
f 7/9/3 5/12/3 6/11/3 8/10/3
f 5/13/4 1/16/4 2/15/4 6/14/4
f 3/17/5 1/18/5 5/12/5 7/9/5
f 8/10/6 6/11/6 2/20/6 4/19/6
f 9/21/1 11/24/1 12/23/1 10/22/1
f 11/25/2 15/28/2 16/27/2 12/26/2
f 15/29/3 13/32/3 14/31/3 16/30/3
f 13/12/4 9/34/4 10/33/4 14/11/4
f 11/35/5 9/36/5 13/32/5 15/29/5
f 16/30/6 14/31/6 10/38/6 12/37/6
f 17/39/1 19/42/1 20/41/1 18/40/1
f 19/42/2 23/44/2 24/43/2 20/41/2
f 23/44/3 21/46/3 22/45/3 24/43/3
f 21/46/4 17/48/4 18/47/4 22/45/4
f 20/41/1 28/41/1 27/40/1 18/40/1
f 19/42/7 25/42/7 29/44/7 23/44/7
f 25/49/4 26/50/4 31/46/4 29/44/4
f 30/43/4 32/45/4 27/52/4 28/51/4
f 18/47/8 27/47/8 32/45/8 22/45/8
f 17/39/1 26/39/1 25/42/1 19/42/1
f 23/44/3 29/44/3 31/46/3 21/46/3
f 24/43/9 30/43/9 28/41/9 20/41/9
f 21/46/10 31/46/10 26/48/10 17/48/10
f 22/45/3 32/45/3 30/43/3 24/43/3
f 33/1/3 34/2/3 36/3/3 35/4/3
f 35/5/2 36/6/2 40/7/2 39/8/2
f 39/9/1 40/10/1 38/11/1 37/12/1
f 37/53/4 38/56/4 34/55/4 33/54/4
f 35/17/5 39/9/5 37/12/5 33/18/5
f 40/10/6 36/19/6 34/20/6 38/11/6
f 41/21/3 42/22/3 44/23/3 43/24/3
f 43/25/2 44/26/2 48/27/2 47/28/2
f 47/29/1 48/30/1 46/31/1 45/32/1
f 45/12/4 46/11/4 42/33/4 41/34/4
f 43/35/5 47/29/5 45/32/5 41/36/5
f 48/30/6 44/37/6 42/38/6 46/31/6
f 49/39/3 50/40/3 52/41/3 51/42/3
f 51/42/2 52/41/2 56/43/2 55/44/2
f 55/44/1 56/43/1 54/45/1 53/46/1
f 53/46/4 54/45/4 50/47/4 49/48/4
f 52/41/3 50/40/3 59/40/3 60/41/3
f 51/42/7 55/44/7 61/44/7 57/42/7
f 57/49/4 61/44/4 63/46/4 58/50/4
f 62/43/4 60/51/4 59/52/4 64/45/4
f 50/47/8 54/45/8 64/45/8 59/47/8
f 49/39/3 51/42/3 57/42/3 58/39/3
f 55/44/1 53/46/1 63/46/1 61/44/1
f 56/43/9 52/41/9 60/41/9 62/43/9
f 53/46/10 49/48/10 58/48/10 63/46/10
f 54/45/1 56/43/1 62/43/1 64/45/1
