# Blender 4.4.0
# www.blender.org
mtllib LPmicrowave.mtl
o Cube.048
v 0.852552 -0.433698 0.153103
v -1.083614 -0.433698 0.153104
v 0.744193 -0.329435 -0.643516
v 0.744193 0.272507 -0.643516
v -0.357798 -0.329435 -0.643516
v -0.357798 0.272507 -0.643516
v 0.887942 0.485633 -0.676449
v 0.115921 0.485633 -0.676449
v 0.115921 0.419629 -0.676449
v 0.887942 0.419629 0.186036
v 0.887942 0.419629 -0.676449
v -1.122924 0.419629 -0.676449
v -1.122924 0.419629 0.186036
v 0.115921 0.419629 0.186036
v 0.112001 -0.433698 0.153103
v 0.193197 -0.329435 -0.643516
v 0.193197 0.272507 -0.643516
v -1.083614 -0.433698 -0.643516
v 0.112001 -0.433698 -0.643516
v 0.852552 -0.433698 -0.643516
v 0.193197 0.272507 -0.610354
v 0.193197 -0.329435 -0.610354
v -0.357798 0.272507 -0.610354
v -0.357798 -0.329435 -0.610354
v 0.744193 0.272507 -0.610354
v 0.744193 -0.329435 -0.610354
v 0.193197 0.216270 -0.610354
v 0.193197 -0.273198 -0.610354
v -0.278109 0.216270 -0.610354
v -0.278109 -0.273198 -0.610354
v 0.664504 0.216270 -0.610354
v 0.664504 -0.273198 -0.610354
v 0.193197 0.216270 -0.586887
v 0.193197 -0.273198 -0.586887
v -0.278109 0.216270 -0.586887
v -0.278109 -0.273198 -0.586887
v 0.664504 0.216270 -0.586887
v 0.664504 -0.273198 -0.586887
v 0.112001 0.470622 0.153103
v -1.083614 0.470622 0.153104
v -1.083614 0.470622 -0.643516
v 0.852552 0.470622 -0.643516
v 0.852552 0.470622 0.153103
v -0.480770 0.315656 -0.738635
v -0.480770 -0.298959 -0.738635
v -0.480770 0.322769 -0.776321
v -0.480770 -0.306073 -0.776321
v -0.425272 0.315656 -0.738635
v -0.425272 -0.298959 -0.738635
v -0.425272 0.322769 -0.776321
v -0.425272 -0.306073 -0.776321
v -0.480770 0.370152 -0.708355
v -0.480770 0.335332 -0.708355
v -0.480770 -0.318635 -0.708355
v -0.480770 -0.353455 -0.708355
v -0.425272 0.370152 -0.708355
v -0.425272 -0.353455 -0.708355
v -0.425272 0.335332 -0.708355
v -0.425272 -0.318635 -0.708355
v -0.480770 -0.006088 -0.738635
v -0.480770 -0.006088 -0.776321
v -0.425272 -0.006088 -0.776321
v -0.425272 -0.006088 -0.738635
v -0.480770 0.370152 -0.644157
v -0.480770 0.335332 -0.644157
v -0.480770 -0.318635 -0.644157
v -0.480770 -0.353455 -0.644157
v -0.425272 0.370152 -0.644157
v -0.425272 -0.353455 -0.644157
v -0.425272 0.335332 -0.644157
v -0.425272 -0.318635 -0.644157
v 0.112001 0.470622 -0.643516
v 0.115921 0.485633 0.186036
v -1.122924 0.485633 -0.676449
v 0.887942 0.485633 0.186036
v -1.122924 0.485633 0.186036
v -0.621290 -0.341225 0.193132
v -0.621290 -0.341225 -0.710842
v -0.621290 0.372917 0.193132
v -0.621290 0.372917 -0.710842
v -0.989069 0.372917 0.193132
v -0.989069 -0.341225 0.193132
v -0.989069 -0.341225 -0.710842
v -0.989069 0.372917 -0.710842
vn -0.0000 -0.0000 1.0000
vn -1.0000 -0.0000 -0.0000
vn 1.0000 -0.0000 -0.0000
vn -0.0000 -1.0000 -0.0000
vn -0.0000 -0.0000 -1.0000
vn -0.0000 1.0000 -0.0000
vn -0.0000 0.8203 -0.5719
vn -0.0000 0.8385 0.5449
vn -0.0000 -0.8203 -0.5719
vn -0.0000 -0.8385 0.5449
vt 0.375000 0.125000
vt 0.625000 0.125000
vt 0.625000 0.250000
vt 0.375000 0.250000
vt 0.295255 0.699323
vt 0.045255 0.699323
vt 0.045255 0.449323
vt 0.295255 0.449323
vt 0.069171 0.439157
vt 0.159801 0.439157
vt 0.375000 0.750000
vt 0.625000 0.750000
vt 0.625000 1.000000
vt 0.375000 1.000000
vt 0.125000 0.625000
vt 0.375000 0.625000
vt 0.125000 0.750000
vt 0.625000 0.625000
vt 0.625000 0.500000
vt 0.625000 0.000000
vt 0.125000 0.500000
vt 0.375000 0.500000
vt 0.069171 0.605075
vt 0.069171 0.522116
vt 0.375000 0.000000
vt 0.159801 0.605075
vt 0.175499 0.714355
vt 0.039343 0.714355
vt 0.159801 0.522116
vt 0.175499 0.534341
vt 0.039343 0.422842
vt 0.175499 0.422842
vt 0.584802 0.758373
vt 0.688597 0.758373
vt 0.673585 0.768967
vt 0.584802 0.768967
vt 0.481007 0.871765
vt 0.481007 0.758373
vt 0.496019 0.768967
vt 0.496019 0.861171
vt 0.388319 0.527587
vt 0.611681 0.527587
vt 0.611681 0.625000
vt 0.611681 0.722413
vt 0.584802 0.871765
vt 0.584802 0.861171
vt 0.688597 0.871765
vt 0.673585 0.861171
vt 0.728572 0.976892
vt 0.748820 0.976892
vt 0.748820 0.985723
vt 0.728572 0.985723
vt 0.728572 0.968061
vt 0.748820 0.968061
vt 0.388319 0.722413
vt 0.388319 0.625000
vt 0.235559 0.790474
vt 0.235559 0.832220
vt 0.256432 0.832220
vt 0.256432 0.790474
vt 0.235559 0.873966
vt 0.256432 0.873966
vt 0.235559 0.915712
vt 0.256432 0.915712
vt 0.235559 0.957458
vt 0.256432 0.957458
vt 0.214686 0.832220
vt 0.214686 0.873966
vt 0.214686 0.915712
vt 0.214686 0.957458
vt 0.214686 0.790474
vt 0.172940 0.873966
vt 0.172940 0.915712
vt 0.298178 0.915712
vt 0.298178 0.873966
vt 0.039343 0.534341
vt 0.639502 0.716981
vt 0.639502 0.564548
vt 0.487070 0.564548
vt 0.487070 0.716981
vt 0.461834 0.614047
vt 0.579881 0.614046
vt 0.579881 0.691193
vt 0.461834 0.691193
s 0
usemtl Material
f 15/1/1 39/2/1 40/3/1 2/4/1
f 2/5/2 40/6/2 41/7/2 18/8/2
f 4/9/2 3/10/2 26/10/2 25/9/2
f 20/11/3 42/12/3 43/13/3 1/14/3
f 15/15/4 19/16/4 20/11/4 1/17/4
f 9/18/5 12/19/5 74/19/5 8/18/5
f 10/20/3 11/12/3 7/12/3 75/20/3
f 7/12/6 8/18/6 73/2/6 75/20/6
f 73/2/6 8/18/6 74/19/6 76/3/6
f 14/2/4 13/3/4 12/19/4 9/18/4
f 2/21/4 18/22/4 19/16/4 15/15/4
f 6/23/4 17/24/4 21/24/4 23/23/4
f 1/25/1 43/20/1 39/2/1 15/1/1
f 6/23/5 5/26/5 18/27/5 41/28/5
f 5/26/5 16/29/5 19/30/5 18/27/5
f 3/10/5 4/9/5 42/31/5 20/32/5
f 16/29/5 3/10/5 20/32/5 19/30/5
f 22/33/5 24/34/5 30/35/5 28/36/5
f 25/37/5 26/38/5 32/39/5 31/40/5
f 16/29/6 5/26/6 24/26/6 22/29/6
f 3/10/6 16/29/6 22/29/6 26/10/6
f 17/24/4 4/9/4 25/9/4 21/24/4
f 5/26/3 6/23/3 23/23/3 24/26/3
f 30/41/3 29/42/3 35/42/3 36/41/3
f 27/43/4 31/44/4 37/44/4 33/43/4
f 26/38/5 22/33/5 28/36/5 32/39/5
f 21/45/5 25/37/5 31/40/5 27/46/5
f 24/34/5 23/47/5 29/48/5 30/35/5
f 23/47/5 21/45/5 27/46/5 29/48/5
f 34/49/5 33/50/5 37/51/5 38/52/5
f 36/53/5 35/54/5 33/50/5 34/49/5
f 29/42/4 27/43/4 33/43/4 35/42/4
f 31/44/2 32/55/2 38/55/2 37/44/2
f 28/56/6 30/41/6 36/41/6 34/56/6
f 32/55/6 28/56/6 34/56/6 38/55/6
f 60/57/2 61/58/2 47/59/2 45/60/2
f 61/58/5 62/61/5 51/62/5 47/59/5
f 62/61/3 63/63/3 49/64/3 51/62/3
f 63/63/1 60/65/1 45/66/1 49/64/1
f 47/59/2 55/59/2 54/60/2 45/60/2
f 46/67/7 52/67/7 56/68/7 50/68/7
f 56/68/3 68/68/3 70/69/3 58/69/3
f 58/69/4 70/69/4 65/70/4 53/70/4
f 45/66/8 54/66/8 59/64/8 49/64/8
f 44/71/2 53/71/2 52/67/2 46/67/2
f 50/68/3 56/68/3 58/69/3 48/69/3
f 51/62/9 57/62/9 55/59/9 47/59/9
f 48/69/10 58/69/10 53/70/10 44/70/10
f 49/64/3 59/64/3 57/62/3 51/62/3
f 48/69/1 44/70/1 60/65/1 63/63/1
f 50/68/3 48/69/3 63/63/3 62/61/3
f 46/67/5 50/68/5 62/61/5 61/58/5
f 44/71/2 46/67/2 61/58/2 60/57/2
f 64/72/1 65/73/1 70/69/1 68/68/1
f 69/62/1 71/64/1 66/74/1 67/75/1
f 52/67/6 64/67/6 68/68/6 56/68/6
f 53/71/2 65/71/2 64/67/2 52/67/2
f 54/66/6 66/66/6 71/64/6 59/64/6
f 59/64/3 71/64/3 69/62/3 57/62/3
f 57/62/4 69/62/4 67/59/4 55/59/4
f 55/59/2 67/59/2 66/60/2 54/60/2
f 11/12/4 10/20/4 14/2/4 9/18/4
f 42/12/6 72/18/6 39/2/6 43/20/6
f 39/2/6 72/18/6 41/19/6 40/3/6
f 6/23/5 41/28/5 72/76/5 17/24/5
f 17/24/5 72/76/5 42/31/5 4/9/5
f 11/12/5 9/18/5 8/18/5 7/12/5
f 12/19/2 13/3/2 76/3/2 74/19/2
f 14/2/1 10/20/1 75/20/1 73/2/1
f 13/3/1 14/2/1 73/2/1 76/3/1
f 77/77/3 78/78/3 80/79/3 79/80/3
f 82/77/2 81/80/2 84/79/2 83/78/2
f 80/81/5 78/82/5 83/83/5 84/84/5
f 78/78/4 77/77/4 82/77/4 83/78/4
f 79/80/6 80/79/6 84/79/6 81/80/6
f 77/77/1 79/80/1 81/80/1 82/77/1
