# Blender 4.4.0
# www.blender.org
mtllib UpperSingleCabinet.mtl
o Cube.034
v 0.491331 1.050805 0.643440
v 0.491331 -0.818920 0.643440
v 0.491331 1.050805 -0.449280
v 0.491331 -0.818920 -0.449280
v -1.119116 1.050806 0.643440
v -1.119117 -0.818920 0.643440
v -1.119116 1.050806 -0.449280
v -1.119117 -0.818920 -0.449280
v 0.369398 0.836418 -0.070597
v 0.369397 -0.714828 -0.070597
v 0.369398 0.836418 -0.506016
v 0.369397 -0.714828 -0.506016
v -0.900171 0.836419 -0.070597
v -0.900171 -0.714828 -0.070597
v -0.900171 0.836419 -0.506016
v -0.900171 -0.714828 -0.506016
v 0.202695 -0.246572 -0.558348
v 0.202695 -0.518929 -0.558348
v 0.202695 -0.246572 -0.611610
v 0.202695 -0.518929 -0.611610
v 0.158101 -0.246572 -0.558348
v 0.158101 -0.518929 -0.558348
v 0.158101 -0.246572 -0.611610
v 0.158101 -0.518929 -0.611610
v 0.202695 -0.183241 -0.515551
v 0.202695 -0.229781 -0.515551
v 0.202695 -0.535720 -0.515551
v 0.202695 -0.582260 -0.515551
v 0.158101 -0.183241 -0.515551
v 0.158101 -0.582260 -0.515551
v 0.158101 -0.229781 -0.515551
v 0.158101 -0.535720 -0.515551
vn 1.0000 -0.0000 -0.0000
vn -0.0000 -0.0000 -1.0000
vn -1.0000 -0.0000 -0.0000
vn -0.0000 -0.0000 1.0000
vn -0.0000 1.0000 -0.0000
vn -0.0000 -1.0000 -0.0000
vn -0.0000 0.8349 -0.5504
vn -0.0000 0.9309 0.3652
vn -0.0000 -0.8349 -0.5504
vn -0.0000 -0.9309 0.3652
vt 0.384983 0.410539
vt 0.384983 0.013083
vt 0.782438 0.013083
vt 0.782438 0.410539
vt 0.799879 0.018569
vt 0.799879 0.396589
vt 0.410947 0.396589
vt 0.410947 0.018569
vt 0.375000 0.500000
vt 0.625000 0.500000
vt 0.625000 0.750000
vt 0.375000 0.750000
vt 0.625000 1.000000
vt 0.375000 1.000000
vt 0.125000 0.500000
vt 0.125000 0.750000
vt 0.875000 0.500000
vt 0.875000 0.750000
vt 0.683439 0.466459
vt 0.756817 0.466459
vt 0.756817 0.539837
vt 0.683439 0.539837
vt 0.030856 0.098081
vt 0.280856 0.098081
vt 0.280856 0.348081
vt 0.030856 0.348081
vt 0.683439 0.613214
vt 0.756817 0.613214
vt 0.756817 0.686592
vt 0.683439 0.686592
vt 0.610061 0.613214
vt 0.610061 0.686592
vt 0.830194 0.613214
vt 0.830194 0.686592
vt 0.613548 0.464051
vt 0.659785 0.464051
vt 0.659785 0.510288
vt 0.613548 0.510288
vt 0.659785 0.556525
vt 0.613548 0.556525
vt 0.659785 0.602762
vt 0.613548 0.602762
vt 0.659785 0.648999
vt 0.613548 0.648999
vt 0.567311 0.556525
vt 0.567311 0.602762
vt 0.706022 0.556525
vt 0.706022 0.602762
s 0
usemtl Material
f 1/1/1 2/2/1 4/3/1 3/4/1
f 3/5/2 4/6/2 8/7/2 7/8/2
f 7/9/3 8/10/3 6/11/3 5/12/3
f 5/12/4 6/11/4 2/13/4 1/14/4
f 3/15/5 7/9/5 5/12/5 1/16/5
f 8/10/6 4/17/6 2/18/6 6/11/6
f 9/19/1 10/20/1 12/21/1 11/22/1
f 11/23/2 12/24/2 16/25/2 15/26/2
f 15/27/3 16/28/3 14/29/3 13/30/3
f 13/12/4 14/11/4 10/13/4 9/14/4
f 11/31/5 15/27/5 13/30/5 9/32/5
f 16/28/6 12/33/6 10/34/6 14/29/6
f 17/35/1 18/36/1 20/37/1 19/38/1
f 19/38/2 20/37/2 24/39/2 23/40/2
f 23/40/3 24/39/3 22/41/3 21/42/3
f 21/42/4 22/41/4 18/43/4 17/44/4
f 20/37/1 18/36/1 27/36/1 28/37/1
f 19/38/7 23/40/7 29/40/7 25/38/7
f 25/45/4 29/40/4 31/42/4 26/46/4
f 30/39/4 28/47/4 27/48/4 32/41/4
f 18/43/8 22/41/8 32/41/8 27/43/8
f 17/35/1 19/38/1 25/38/1 26/35/1
f 23/40/3 21/42/3 31/42/3 29/40/3
f 24/39/9 20/37/9 28/37/9 30/39/9
f 21/42/10 17/44/10 26/44/10 31/42/10
f 22/41/3 24/39/3 30/39/3 32/41/3
