# Blender 4.4.0
# www.blender.org
mtllib Grasslight.mtl
o Plane.002
v -0.637813 -0.136795 0.000587
v 0.637814 -0.136795 0.000587
v -0.637813 2.967924 1.525968
v 0.637814 2.967924 1.525968
v -0.637813 2.191744 0.858302
v -0.637813 1.415564 0.330066
v -0.637813 0.639384 0.123077
v 0.637814 0.639384 0.123077
v 0.637814 1.415564 0.330066
v 0.637814 2.191744 0.858302
v 0.637814 -0.136795 -0.131485
v -0.637813 -0.136795 -0.131485
v 0.637813 2.967923 -1.656866
v -0.637814 2.967923 -1.656866
v 0.637814 2.191744 -0.989200
v 0.637814 1.415564 -0.460964
v 0.637814 0.639384 -0.253975
v -0.637813 0.639384 -0.253975
v -0.637813 1.415564 -0.460964
v -0.637813 2.191744 -0.989199
v 0.152520 -0.120720 -0.413764
v 0.163850 -0.152907 0.049126
v -0.768385 3.840480 0.105288
v -0.757055 3.808293 0.568179
v -0.365300 2.853344 -0.069982
v -0.046394 1.864668 -0.223091
v 0.078570 0.872441 -0.325142
v 0.089900 0.840254 0.137748
v -0.035064 1.832481 0.239799
v -0.353970 2.821158 0.392908
v 0.228541 -0.120720 0.505978
v 0.217211 -0.152907 0.043088
v 1.149446 3.840480 -0.013074
v 1.138116 3.808293 -0.475964
v 0.746361 2.853344 0.162196
v 0.427455 1.864668 0.315305
v 0.302491 0.872441 0.417356
v 0.291161 0.840254 -0.045534
v 0.416125 1.832481 -0.147585
v 0.735031 2.821158 -0.300694
v -0.682052 -0.120720 -0.168839
v -0.477498 -0.152907 0.246556
v -1.300087 3.840480 0.688782
v -1.095532 3.808293 1.104177
v -1.007779 2.853344 0.360525
v -0.782576 1.864668 0.087711
v -0.711980 0.872441 -0.057364
v -0.507426 0.840254 0.358031
v -0.578022 1.832481 0.503106
v -0.803225 2.821158 0.775920
v 0.447727 -0.016192 0.149077
v 0.242121 0.008397 -0.266318
v 2.118554 3.628175 -0.708544
v 1.912948 3.652764 -1.123939
v 1.569089 2.757561 -0.380287
v 1.083788 1.867235 -0.107473
v 0.746315 0.931495 0.037603
v 0.540709 0.956083 -0.377793
v 0.878182 1.891824 -0.522868
v 1.363483 2.782151 -0.795682
vn -0.0000 -0.6521 0.7581
vn -0.0000 -0.1559 0.9878
vn -0.0000 -0.2577 0.9662
vn -0.0000 -0.5626 0.8267
vn -0.0000 -0.6521 -0.7581
vn -0.0000 -0.1559 -0.9878
vn -0.0000 -0.2577 -0.9662
vn -0.0000 -0.5626 -0.8267
vn -0.9260 -0.3775 -0.0036
vn -0.9969 -0.0759 0.0191
vn -0.9918 -0.1265 0.0155
vn -0.9516 -0.3073 0.0019
vn 0.9260 -0.3775 0.0036
vn 0.9969 -0.0759 -0.0191
vn 0.9918 -0.1265 -0.0155
vn 0.9516 -0.3073 -0.0019
vn -0.8420 -0.3775 0.3854
vn -0.8969 -0.0759 0.4358
vn -0.8938 -0.1265 0.4303
vn -0.8630 -0.3073 0.4011
vn 0.7078 -0.5920 -0.3854
vn 0.8425 -0.3167 -0.4358
vn 0.8258 -0.3645 -0.4303
vn 0.7470 -0.5301 -0.4011
vt 0.322849 0.750000
vt 0.751062 0.750000
vt 0.751062 1.000000
vt 0.322849 1.000000
vt 0.322849 0.000000
vt 0.751062 0.000000
vt 0.751062 0.250000
vt 0.322849 0.250000
vt 0.751062 0.500000
vt 0.322849 0.500000
vt 0.270993 0.750000
vt 0.594624 0.750000
vt 0.594624 1.000000
vt 0.270993 1.000000
vt 0.270993 0.000000
vt 0.594624 0.000000
vt 0.594624 0.250000
vt 0.270993 0.250000
vt 0.594624 0.500000
vt 0.270993 0.500000
vt 0.535143 0.750000
vt 0.740342 0.750000
vt 0.740342 1.000000
vt 0.535143 1.000000
vt 0.535143 0.000000
vt 0.740342 0.000000
vt 0.740342 0.250000
vt 0.535143 0.250000
vt 0.740342 0.500000
vt 0.535143 0.500000
vt 0.262211 0.750000
vt 0.448865 0.750000
vt 0.448865 1.000000
vt 0.262211 1.000000
vt 0.262211 0.000000
vt 0.448865 0.000000
vt 0.448865 0.250000
vt 0.262211 0.250000
vt 0.448865 0.500000
vt 0.262211 0.500000
s 0
usemtl Material.002
f 5/1/1 10/2/1 4/3/1 3/4/1
f 1/5/2 2/6/2 8/7/2 7/8/2
f 7/8/3 8/7/3 9/9/3 6/10/3
f 6/10/4 9/9/4 10/2/4 5/1/4
f 15/11/5 20/12/5 14/13/5 13/14/5
f 11/15/6 12/16/6 18/17/6 17/18/6
f 17/18/7 18/17/7 19/19/7 16/20/7
f 16/20/8 19/19/8 20/12/8 15/11/8
f 25/21/9 30/22/9 24/23/9 23/24/9
f 21/25/10 22/26/10 28/27/10 27/28/10
f 27/28/11 28/27/11 29/29/11 26/30/11
f 26/30/12 29/29/12 30/22/12 25/21/12
f 35/31/13 40/32/13 34/33/13 33/34/13
f 31/35/14 32/36/14 38/37/14 37/38/14
f 37/38/15 38/37/15 39/39/15 36/40/15
f 36/40/16 39/39/16 40/32/16 35/31/16
f 45/21/17 50/22/17 44/23/17 43/24/17
f 41/25/18 42/26/18 48/27/18 47/28/18
f 47/28/19 48/27/19 49/29/19 46/30/19
f 46/30/20 49/29/20 50/22/20 45/21/20
f 55/21/21 60/22/21 54/23/21 53/24/21
f 51/25/22 52/26/22 58/27/22 57/28/22
f 57/28/23 58/27/23 59/29/23 56/30/23
f 56/30/24 59/29/24 60/22/24 55/21/24
